<svg xmlns="http://www.w3.org/2000/svg" width="300" height="200" viewBox="0 0 300 200">
  <defs><linearGradient id="bg" x1="0" y1="0" x2="0" y2="1"><stop offset="0" stop-color="#fafafa"/><stop offset="1" stop-color="#eceef2"/></linearGradient></defs>
  <rect width="300" height="200" fill="url(#bg)"/>
  <path d="M 65 96 L 26 70" fill="none" stroke="#1a1a2e" stroke-width="5" stroke-linecap="round"/>
  <path d="M 235 96 L 274 70" fill="none" stroke="#1a1a2e" stroke-width="5" stroke-linecap="round"/>
  <circle cx="66" cy="96" r="3.5" fill="#1a1a2e"/>
  <circle cx="234" cy="96" r="3.5" fill="#1a1a2e"/>
  <path d="M 126 92 Q 150 80 174 92" fill="none" stroke="#1a1a2e" stroke-width="5" stroke-linecap="round"/>
  <path d="M 138 104 q -4 8 -1 14" fill="none" stroke="#1a1a2e" stroke-width="2.5" stroke-opacity="0.6"/>
  <path d="M 162 104 q 4 8 1 14" fill="none" stroke="#1a1a2e" stroke-width="2.5" stroke-opacity="0.6"/>
  <polygon points="95,70 121,85 121,115 95,130 69,115 69,85" fill="#3FA7D6" fill-opacity="0.18" stroke="#1a1a2e" stroke-width="5" stroke-linejoin="round"/><polygon points="95,70 121,85 121,115 95,130 69,115 69,85" fill="none" stroke="#1a1a2e" stroke-width="2" stroke-opacity="0.35"/>
  <polygon points="205,70 231,85 231,115 205,130 179,115 179,85" fill="#3FA7D6" fill-opacity="0.18" stroke="#1a1a2e" stroke-width="5" stroke-linejoin="round"/><polygon points="205,70 231,85 231,115 205,130 179,115 179,85" fill="none" stroke="#1a1a2e" stroke-width="2" stroke-opacity="0.35"/>
  <text x="150" y="190" text-anchor="middle" font-family="sans-serif" font-size="16" fill="#1a1a2e">多边形</text>
</svg>
